/* XPM */
static char *_696790bf3e74487929388fe70971262ZlH1d14qURNiLFwA[] = {
/* columns rows colors chars-per-pixel */
"32 32 223 2 ",
"   c None",
".  c black",
"X  c #070000",
"o  c #111315",
"O  c #16171B",
"+  c #280000",
"@  c #250209",
"#  c #2D221D",
"$  c #3F2013",
"%  c #37211D",
"&  c #3F2F1D",
"*  c #001926",
"=  c #292B2C",
"-  c #302721",
";  c #302927",
":  c #451810",
">  c #6D0000",
",  c #442B24",
"<  c #583529",
"1  c #583A2B",
"2  c #5D3B2D",
"3  c #5A3D2D",
"4  c #593C2F",
"5  c #4C3D30",
"6  c #533E33",
"7  c #5B4130",
"8  c #5F4432",
"9  c #584837",
"0  c #5E4836",
"q  c #67412F",
"w  c #69432E",
"e  c #664734",
"r  c #6D4732",
"t  c #6D4A38",
"y  c #714B35",
"u  c #744E37",
"i  c #66503D",
"p  c #68513E",
"a  c #7E5236",
"s  c #72503A",
"d  c #76563E",
"f  c #7E583F",
"g  c #434040",
"h  c #635243",
"j  c #6C5745",
"k  c #6F5843",
"l  c #6E5A45",
"z  c #735A44",
"x  c #745B45",
"c  c #765D46",
"v  c #7B5841",
"b  c #7E5940",
"n  c #7E5841",
"m  c #795C43",
"M  c #7E5B44",
"N  c #7A5C45",
"B  c #7E5D44",
"V  c #78634A",
"C  c #5E6B71",
"Z  c #787B7D",
"A  c #8C5626",
"S  c #82593F",
"D  c #9C602F",
"F  c #9E6638",
"G  c #825B41",
"H  c #855E51",
"J  c #85674D",
"K  c #8D654E",
"L  c #85694E",
"P  c #88684F",
"I  c #906447",
"U  c #956445",
"Y  c #946F41",
"T  c #996943",
"R  c #9A6D45",
"E  c #94664A",
"W  c #97674B",
"Q  c #9B6A4A",
"!  c #9C6B48",
"~  c #9C6B4F",
"^  c #886755",
"/  c #846B52",
"(  c #876C50",
")  c #8E6B50",
"_  c #8B6D52",
"`  c #8C6C51",
"'  c #8C6F53",
"]  c #956D54",
"[  c #937053",
"{  c #9F7454",
"}  c #9F7557",
"|  c #977759",
" . c #9B7A5B",
".. c #997A5F",
"X. c #A9734D",
"o. c #A8704E",
"O. c #A47351",
"+. c #A97454",
"@. c #AC7A51",
"#. c #AC7956",
"$. c #A27C5B",
"%. c #A47E58",
"&. c #A37F5E",
"*. c #B27A55",
"=. c #B27C59",
"-. c #B57E59",
";. c #9A6B6A",
":. c #947767",
">. c #BB8157",
",. c #BB825B",
"<. c #BE8359",
"1. c #B8815D",
"2. c #B8825E",
"3. c #B9835E",
"4. c #BC845E",
"5. c #BF8C58",
"6. c #9E8061",
"7. c #A98765",
"8. c #AB8865",
"9. c #AB8966",
"0. c #B28663",
"q. c #B58B61",
"w. c #B58963",
"e. c #B98E6A",
"r. c #BB9067",
"t. c #B5906B",
"y. c #B5916C",
"u. c #A98774",
"i. c #BE9771",
"p. c #C48C65",
"a. c #C39167",
"s. c #CD9169",
"d. c #DD9B62",
"f. c #D59A6E",
"g. c #C09972",
"h. c #C49A70",
"j. c #C69A75",
"k. c #C59D76",
"l. c #C69E76",
"z. c #CE9875",
"x. c #D59F73",
"c. c #D89E72",
"v. c #CDA077",
"b. c #CAA178",
"n. c #CCA279",
"m. c #D3A47A",
"M. c #D3A57A",
"N. c #D2A87C",
"B. c #D6A87D",
"V. c #DBAA7D",
"C. c #E1AA7B",
"Z. c #E2AA7B",
"A. c #E0AB7E",
"S. c #E1AC7F",
"D. c #859097",
"F. c #8F9294",
"G. c #919699",
"H. c #91979A",
"J. c #9D9E9F",
"K. c #BFA48D",
"L. c #B8A594",
"P. c #969DA0",
"I. c #AEA6A6",
"U. c #ADAAA9",
"Y. c #CD8D8C",
"T. c #C19F8E",
"R. c #CBA486",
"E. c #CBA687",
"W. c #C0A289",
"Q. c #D9AE82",
"!. c #DAAE82",
"~. c #DBAF82",
"^. c #DAAE83",
"/. c #DAAF83",
"(. c #DCAE82",
"). c #DCAE83",
"_. c #DAB084",
"`. c #DCB084",
"'. c #DEB285",
"]. c #E1B285",
"[. c #E6B184",
"{. c #E2B487",
"}. c #EBB282",
"|. c #EBB687",
" X c #EABA8A",
".X c #EABB8B",
"XX c #EEBE8E",
"oX c #F2B686",
"OX c #F4BD8B",
"+X c #F1BD8C",
"@X c #F9BF8E",
"#X c #E1B297",
"$X c #EEBF91",
"%X c #F1C08F",
"&X c #F2C190",
"*X c #F2C191",
"=X c #F2C291",
"-X c #F3C291",
";X c #F4C291",
":X c #F4C391",
">X c #F4C392",
",X c #F5C492",
"<X c #F5C493",
"1X c #F6C492",
"2X c #F3C496",
"3X c #F7C695",
"4X c #F8C390",
"5X c #F8C694",
"6X c #F9C895",
"7X c #FBC996",
"8X c #FFD29D",
"9X c #CBCBCB",
"0X c gray80",
"qX c #CDCDCD",
"wX c gray81",
"eX c #D3CFCE",
"rX c #DACDC8",
"tX c #CECFD0",
"yX c gray84",
"uX c #EBDBDA",
"iX c bisque",
"pX c #DBE0E2",
"aX c #F0F5F8",
/* pixels */
"                            0 i L V                             ",
"                          5 Q.(.9.0.@                           ",
"                          [ V.{.'.{ O.7                         ",
"                          f o.p g.l S s                         ",
"                          b 4.W w .                             ",
"                          G #.1 e .                             ",
"                          u x._.Q..XP                           ",
"                          r C.3X>X<X%Xx                         ",
"                          y }.y.i.9.N.`                         ",
"                          : C.9.t. .b.`                         ",
"                        B ` m.b.b.k.Q.P H.I.;.                  ",
"                      < f.7X<X<X<X]..Xj.eXuXY..                 ",
"                    I 2.[.-X-XXX7XO.B.8X5.> T O                 ",
"                  # +.=.A.-X-X-X<XQ.y.w.E.rXK                   ",
"                    , 2.|.<X>X-X>X5X).*.H J.                    ",
"                      d &.c.S.<X>X>X7X&.$                       ",
"                          e ~ ) k c z                           ",
"                          v s.E .                               ",
"                        n <.d.@.                                ",
"                      L o.R.iXW..                               ",
"                    & $X%.K.aXtX+ ..6.                          ",
"                X U.:.h.2XY L.P.D oXOXN                         ",
"                . pX#XA q.@Xa.. M Q U 3                         ",
"                  C ] z.D.a t =                                 ",
"                      ^ T.2 3 o                                 ",
"                    6 ! R v.% -                                 ",
"                    8 ,./ '..                                   ",
"                  ; p.-.| Q.9 j                                 ",
"                  . F N >X+X4Xr.                                ",
"                    Z h m.2.>.u.H.                              ",
"                  eX0Xg . * . F.yX9X0X0X0X0X                    ",
"                                                                "
};
