/* XPM */
static char *a7ee85077a9949cfc67c4e1e3e91070elLXeMFDJRN530tly[] = {
/* columns rows colors chars-per-pixel */
"32 32 233 2 ",
"   c None",
".  c black",
"X  c #000009",
"o  c #1F0000",
"O  c #160A12",
"+  c #2E1200",
"@  c #221A1A",
"#  c #2E231F",
"$  c #32211D",
"%  c #2C2520",
"&  c #3E2B22",
"*  c #3D332A",
"=  c #562800",
"-  c #552F18",
";  c #5A2D1E",
":  c #672C00",
">  c #7F2E00",
",  c #41352B",
"<  c #42342A",
"1  c #47362B",
"2  c #4E3B2F",
"3  c #4C3C2F",
"4  c #593424",
"5  c #533829",
"6  c #51392A",
"7  c #563E2E",
"8  c #5F3D2E",
"9  c #56422C",
"0  c #574133",
"q  c #554334",
"w  c #5D4130",
"e  c #5C4332",
"r  c #5E4A3A",
"t  c #5E4D3B",
"y  c #794827",
"u  c #624130",
"i  c #614733",
"p  c #654632",
"a  c #694B37",
"s  c #614D3B",
"d  c #644F3C",
"f  c #6E4D38",
"g  c #704934",
"h  c #66503D",
"j  c #72533D",
"k  c #7A5139",
"l  c #305363",
"z  c #5C4640",
"x  c #5F5340",
"c  c #585655",
"v  c #6F5742",
"b  c #6E5944",
"n  c #715540",
"m  c #755640",
"M  c #715943",
"N  c #7C5A44",
"B  c #7A5C45",
"V  c #715549",
"C  c #775F48",
"Z  c #705D56",
"A  c #676666",
"S  c #80553C",
"D  c #84583D",
"F  c #855A3F",
"G  c #A97235",
"H  c #805A40",
"J  c #875C41",
"K  c #845C42",
"L  c #8A5F43",
"P  c #8E6646",
"I  c #80654B",
"U  c #906146",
"Y  c #9F6C47",
"T  c #906648",
"R  c #926648",
"E  c #91674D",
"W  c #9B6648",
"Q  c #94684A",
"!  c #97694B",
"~  c #9C6D4D",
"^  c #9D6C4F",
"/  c #9D6F4F",
"(  c #886B50",
")  c #8C6F55",
"_  c #957154",
"`  c #937457",
"'  c #977456",
"]  c #9C7556",
"[  c #97785A",
"{  c #96795B",
"}  c #997A5B",
"|  c #9D795B",
" . c #AA704A",
".. c #A4794A",
"X. c #A27050",
"o. c #A57351",
"O. c #A57353",
"+. c #AB7A51",
"@. c #A17F5F",
"#. c #A57F5E",
"$. c #AA7958",
"%. c #B47B56",
"&. c #846B65",
"*. c #966060",
"=. c #A96B6A",
"-. c #A8815F",
";. c #B8815D",
":. c #B8845E",
">. c #A08163",
",. c #A48463",
"<. c #B08666",
"1. c #B68863",
"2. c #B68E64",
"3. c #B58E69",
"4. c #BB926C",
"5. c #BC926C",
"6. c #BA946E",
"7. c #BC956F",
"8. c #BC966F",
"9. c #B79470",
"0. c #BB9771",
"q. c #BA9672",
"w. c #BC9671",
"e. c #BE9772",
"r. c #CA8958",
"t. c #C08760",
"y. c #C08A63",
"u. c #C28C65",
"i. c #CE9066",
"p. c #C89269",
"a. c #CB946B",
"s. c #D0966C",
"d. c #D8976B",
"f. c #DC9F6A",
"g. c #D99C6F",
"h. c #C39072",
"j. c #C39B73",
"k. c #C49D75",
"l. c #C59E77",
"z. c #C79E76",
"x. c #D09C72",
"c. c #C9A077",
"v. c #CCA077",
"b. c #CFA57B",
"n. c #CEA57C",
"m. c #D9A275",
"M. c #D9A376",
"N. c #DEA679",
"B. c #D6AB7F",
"V. c #DBA87C",
"C. c #DFAB7D",
"Z. c #E3AA7C",
"A. c #868C8E",
"S. c #9EA5A9",
"D. c #B9A5A5",
"F. c #B6B0AC",
"G. c #ABB0B1",
"H. c #B1B5B6",
"J. c #B8B7B7",
"K. c #C5A084",
"L. c #D5AA80",
"P. c #D4AC81",
"I. c #D8AD81",
"U. c #DAAE82",
"Y. c #DCAC81",
"T. c #DCAD81",
"R. c #DCAE80",
"E. c #DCAE83",
"W. c #DFAE82",
"Q. c #DFAF82",
"!. c #DFAF83",
"~. c #DEB184",
"^. c #CBA792",
"/. c #E2AE80",
"(. c #E7B082",
"). c #E2B486",
"_. c #E3B587",
"`. c #EAB183",
"'. c #EAB484",
"]. c #E9B586",
"[. c #E9B786",
"{. c #ECB484",
"}. c #E2B28B",
"|. c #EDBA8A",
" X c #EABB8C",
".X c #EBBC8C",
"XX c #EEBE8E",
"oX c #EFBE8E",
"OX c #EEBF8F",
"+X c #F1B787",
"@X c #F2BC84",
"#X c #F0BB8A",
"$X c #F5BB89",
"%X c #D0B6A4",
"&X c #EFC08F",
"*X c #F2C090",
"=X c #F2C190",
"-X c #F2C191",
";X c #F3C291",
":X c #F3C392",
">X c #F4C392",
",X c #F5C392",
"<X c #F4C492",
"1X c #F5C492",
"2X c #F6C493",
"3X c #F7C593",
"4X c #F6C594",
"5X c #F7C694",
"6X c #F8C694",
"7X c #F8C795",
"8X c #FDCA96",
"9X c #FDCB98",
"0X c #FECC98",
"qX c #FECC99",
"wX c #E1C2AB",
"eX c #F6D0AD",
"rX c #BEC0C0",
"tX c gray78",
"yX c #CBCBCB",
"uX c #CBCDCD",
"iX c gray80",
"pX c #CDCDCD",
"aX c #CECECE",
"sX c #D6CAC5",
"dX c #C5D3DA",
"fX c #D4D3D3",
"gX c #DBDAD8",
"hX c #DFDDDD",
"jX c #E5C7C5",
"kX c #E0E7EA",
"lX c #E9E9E9",
"zX c #EAEFF2",
"xX c white",
/* pixels */
"                            2 , v                               ",
"                          * U.j.6._                             ",
"                          #./.&X} %.a                           ",
"                          Q W ) C L i                           ",
"                          T ;.U p                               ",
"                          Q X.u 5 .                             ",
"                          L m.P.U.).h                           ",
"                          k `.6X,X6X_.1                         ",
"                          D #X,.c.>.~.r                         ",
"                          ; /.} j.( L.9                         ",
"                        b [ Y.k.B.k.R.Z G.D.*.                  ",
"                      D 1.8X,X1X4XR.].K.fXjX=.                  ",
"                    o.g.#X:X*X:X,XE  X8XG > P                   ",
"                  # K $.m./.:X:X,XU.<.+.%XsX:                   ",
"                    O u.].|.1X,X,X6X/. .&.A.                    ",
"                    & e ' s.V.OX.XOX Xn o                       ",
"                          8 / n % , 3                           ",
"                          ^ d.k t f                             ",
"                      X 5.a.p.] n.{.5                           ",
"                    . 6.:Xe.q.0 z.qXs                           ",
"                . . 8.9X/.Y 2.e.OX].7                           ",
"              . tXhX}.:X@XwXF...>.H                             ",
"              . lXzXh.f.eXxXkXl                                 ",
"                A c 1.r.^.dXS.                                  ",
"                  . y.e @ r N                                   ",
"                  ) :.$     5.3.                                ",
"                C B.b     0 O.g .                               ",
"              ] 4Xh       / i.,.9.M                             ",
"              [ Z.v.0.    j ! x.$XB                             ",
"                4 N.Z.+       = y                               ",
"                  - V J.iXiXgXrXH.iXiXiXiX                      ",
"                                                                "
};
