/* XPM */
static char *f3da9c72075b43118371eefecae3054a4DFNamffU3vWmcgh[] = {
/* columns rows colors chars-per-pixel */
"32 32 251 2 ",
"   c None",
".  c black",
"X  c #00000D",
"o  c #00000F",
"O  c #00010F",
"+  c #000011",
"@  c #000013",
"#  c #000614",
"$  c #000E1F",
"%  c #2B1010",
"&  c #2F1B17",
"*  c #251D1A",
"=  c #241D1C",
"-  c #3C1F19",
";  c #2C231D",
":  c #32231E",
">  c #242428",
",  c #352A22",
"<  c #332D26",
"1  c #3A2B22",
"2  c #423227",
"3  c #433227",
"4  c #4F3326",
"5  c #49392C",
"6  c #48392F",
"7  c #4E3D2E",
"8  c #573526",
"9  c #5B3625",
"0  c #5D3F2D",
"q  c #493230",
"w  c #513E31",
"e  c #7C4000",
"r  c #5D4B39",
"t  c #6B442F",
"y  c #6F4835",
"u  c #624E3B",
"i  c #634E3B",
"p  c #694938",
"a  c #714B32",
"s  c #724A35",
"d  c #734A35",
"f  c #724C35",
"g  c #704E38",
"h  c #65503C",
"j  c #64513D",
"k  c #6C523D",
"l  c #75503B",
"z  c #77543D",
"x  c #79573F",
"c  c #7D5C38",
"v  c #153F4F",
"b  c #424445",
"n  c #4A4140",
"m  c #665340",
"M  c #6F5A43",
"N  c #6C5845",
"B  c #7C5640",
"V  c #715B44",
"C  c #705C46",
"Z  c #7E5940",
"A  c #785D46",
"S  c #715C48",
"D  c #755E49",
"F  c #7A634B",
"G  c #7D634A",
"H  c #716154",
"J  c #75706D",
"K  c #777677",
"L  c #8F5225",
"P  c #8D5626",
"I  c #935928",
"U  c #C57D3B",
"Y  c #875E42",
"T  c #805F46",
"R  c #825F46",
"E  c #895D43",
"W  c #8C5E44",
"Q  c #8E6146",
"!  c #8E614F",
"~  c #8D684A",
"^  c #8E6B4F",
"/  c #986944",
"(  c #95694C",
")  c #986B4B",
"_  c #8E6E51",
"`  c #996C5A",
"'  c #8E7356",
"]  c #977255",
"[  c #987254",
"{  c #937558",
"}  c #947558",
"|  c #96725F",
" . c #96785A",
".. c #A07050",
"X. c #A77250",
"o. c #A87351",
"O. c #A97452",
"+. c #AF7653",
"@. c #AB7454",
"#. c #A97654",
"$. c #AA7656",
"%. c #AE7955",
"&. c #A57A59",
"*. c #A47A5B",
"=. c #A87B5C",
"-. c #B17C57",
";. c #B67F57",
":. c #B17D58",
">. c #B37E5A",
",. c #B37F5B",
"<. c #9F7F6E",
"1. c #C17E7E",
"2. c #AE805E",
"3. c #AA845F",
"4. c #B9805A",
"5. c #BA825B",
"6. c #BD815B",
"7. c #BC845D",
"8. c #A18060",
"9. c #AA8061",
"0. c #AC8160",
"q. c #A98866",
"w. c #AE8C69",
"e. c #AE8D6A",
"r. c #AF8D6A",
"t. c #AF8E6A",
"y. c #BC8560",
"u. c #B08C69",
"i. c #B5906C",
"p. c #B7926D",
"a. c #B5916F",
"s. c #BA936C",
"d. c #BB946F",
"f. c #A08579",
"g. c #AF8E7E",
"h. c #BD9570",
"j. c #BC9670",
"k. c #CA8D64",
"l. c #C98E65",
"z. c #C3946E",
"x. c #CB956B",
"c. c #CD966C",
"v. c #C7986F",
"b. c #D7976A",
"n. c #C19A73",
"m. c #C29B73",
"M. c #C49C75",
"N. c #CD9D73",
"B. c #CA9D75",
"V. c #CA9E75",
"C. c #CC9E75",
"Z. c #D09C72",
"A. c #CEA276",
"S. c #C8A078",
"D. c #C9A078",
"F. c #CAA078",
"G. c #CCA279",
"H. c #D6A276",
"J. c #D8A276",
"K. c #DAA376",
"L. c #D0A67C",
"P. c #D5A77E",
"I. c #D3A87D",
"U. c #D2A97E",
"Y. c #D4A87E",
"T. c #DFA87B",
"R. c #E4AA77",
"E. c #E0AB7C",
"W. c #868586",
"Q. c #AD9991",
"!. c #A99E96",
"~. c #A0A4A5",
"^. c #A3A6A7",
"/. c #AAA9A8",
"(. c #D5AB80",
"). c #D1A884",
"_. c #D9AB80",
"`. c #DAAE82",
"'. c #DBAE82",
"]. c #DBAF83",
"[. c #DCAF83",
"{. c #E4B382",
"}. c #E2B285",
"|. c #E1B386",
" X c #E4B385",
".X c #E6B685",
"XX c #E6B586",
"oX c #E8B283",
"OX c #EAB587",
"+X c #E3B688",
"@X c #E7B788",
"#X c #E6B789",
"$X c #EAB789",
"%X c #E8BA8B",
"&X c #E9BA8B",
"*X c #EDB888",
"=X c #E8BA8C",
"-X c #E9BA8C",
";X c #EABB8C",
":X c #ECBE8E",
">X c #EEBE8E",
",X c #F1BA8A",
"<X c #F0BB8A",
"1X c #F5BB89",
"2X c #F2BF8B",
"3X c #F3BD8C",
"4X c #F0BF8F",
"5X c #F5BE8D",
"6X c #ECBD90",
"7X c #CBAEA1",
"8X c #C4BCBA",
"9X c #F0C08F",
"0X c #F1C08F",
"qX c #F6C28F",
"wX c #F1C090",
"eX c #F1C190",
"rX c #F2C190",
"tX c #F2C291",
"yX c #F3C291",
"uX c #F5C290",
"iX c #F6C593",
"pX c #F7C593",
"aX c #F6C795",
"sX c #F7C795",
"dX c #F9C593",
"fX c #F9C694",
"gX c #FBC895",
"hX c #FBC996",
"jX c #FDCA97",
"kX c #FDCB97",
"lX c #FFCB97",
"zX c #FFCC99",
"xX c #FFCF9B",
"cX c #E7CCBC",
"vX c #B7C1C6",
"bX c #B5C7D0",
"nX c #C8C8C8",
"mX c #C9CACA",
"MX c #CACACA",
"NX c gray80",
"BX c #C6D0D6",
"VX c gray84",
"CX c #E3D5CF",
"ZX c #FDE3CE",
"AX c #F8E1E0",
"SX c #ECF1F2",
"DX c #EFF3F4",
"FX c #F5F6F6",
"GX c #F0F6F9",
"HX c #FEFFFF",
"JX c white",
/* pixels */
"                            w u O u                             ",
"                          r }.jX8.G.Q                           ",
"                        . B.$XU.(.k #.1                         ",
"                        . -.E 4 & O +                           ",
"                        . -.$.k.B                               ",
"                        . >.W d %                               ",
"                        . %.m.u.d.p..                           ",
"                        . O.5XxXkXxXM.;                         ",
"                        . O.,Xe.'.i.&X6                         ",
"                        . X.3XF L.G [.7                         ",
"                      2 < y }.{ I.} '.6 b n q                   ",
"                    f J.;X#X4X;X>X&X{.f.SXAX1.                  ",
"                  1 l y.*XgXrXsX9X*.9X6Xf.` Q .                 ",
"                  z 4.Z.eXeXrXrX9X2.'..X).g./                   ",
"                    p 6.{.sXrXrX9X>X=.L Q.mX                    ",
"                    Z 4.H.,XuXgXjXxXfX2.9                       ",
"                      . Y +.z.V.B.Y.j.#                         ",
"                        . B $.- .                               ",
"                  V C.s 8 k.b.g                                 ",
"                S .Xc.] $X2.N._ . n.D.,                         ",
"                _ x.A 3XP.j.e.= m.kXT.:                         ",
"              * . ~ ;XfX.X3.s.'.fXK.t                           ",
"              J FXCXE.2XZXFX!.c D 0                             ",
"              K DX8XU cXJXJXBXv                                 ",
"              N H + L 7XbXvXW.                                  ",
"            h 4XA.V *.) + $ ;.a                                 ",
"            N  X=.#Xu.      ..}                                 ",
"            m qX7..         . 9XA    .'                         ",
"            h B.(             a.e.q.5XOX>                       ",
"              .               . E.1XI e                         ",
"                  nXNXNXNXNXNX/.| Q ^.~.VX                      ",
"                                        nX                      "
};
