/* XPM */
static char *_642cee426594892a13916c50f005f50HXzlMXFMcvM8iMak[] = {
/* columns rows colors chars-per-pixel */
"32 32 236 2 ",
"   c None",
".  c black",
"X  c #0B000D",
"o  c #140502",
"O  c #000211",
"+  c #070812",
"@  c #060A13",
"#  c #00001C",
"$  c #100D14",
"%  c #110D14",
"&  c #110F14",
"*  c #1A1417",
"=  c #1D1618",
"-  c #1F1919",
";  c #370000",
":  c #2B1300",
">  c #221A1A",
",  c #241C1A",
"<  c #271E1B",
"1  c #201C1C",
"2  c #2B221D",
"3  c #2A221E",
"4  c #001020",
"5  c #002337",
"6  c #3B2D25",
"7  c #3D362F",
"8  c #3D3B3C",
"9  c #6B2700",
"0  c #423126",
"q  c #453126",
"w  c #4C3528",
"e  c #43392E",
"r  c #493A2D",
"t  c #573D2E",
"y  c #613F2C",
"u  c #5F4A37",
"i  c #5A433C",
"p  c #71492C",
"a  c #614132",
"s  c #6A4836",
"d  c #6F4E37",
"f  c #724F3A",
"g  c #67523E",
"h  c #76523B",
"j  c #785039",
"k  c #7D5F3F",
"l  c #525151",
"z  c #644E40",
"x  c #695440",
"c  c #7C5047",
"v  c #7A5841",
"b  c #786049",
"n  c #79614C",
"m  c #7B6254",
"M  c #4F5C62",
"N  c #596066",
"B  c #65686B",
"V  c #786560",
"C  c #737171",
"Z  c #8D521B",
"A  c #80533C",
"S  c #825B3C",
"D  c #9D5F5F",
"F  c #8A6641",
"G  c #82674F",
"H  c #8F6248",
"J  c #88674E",
"K  c #80684F",
"L  c #84694F",
"P  c #956547",
"I  c #926249",
"U  c #936449",
"Y  c #93664A",
"T  c #946548",
"R  c #98674B",
"E  c #976A4C",
"W  c #9A6A4B",
"Q  c #9D6B48",
"!  c #98684D",
"~  c #92714D",
"^  c #876A50",
"/  c #8B6E53",
"(  c #8C6F53",
")  c #8D7055",
"_  c #8E7155",
"`  c #8F7155",
"'  c #927356",
"]  c #9A7056",
"[  c #9B7657",
"{  c #947658",
"}  c #95785A",
"|  c #94785B",
" . c #9D7C5D",
".. c #A36C4B",
"X. c #AE7345",
"o. c #A7704B",
"O. c #A67453",
"+. c #A67553",
"@. c #A47455",
"#. c #AE7A57",
"$. c #A17658",
"%. c #AF7C5A",
"&. c #8F7D6F",
"*. c #A77C63",
"=. c #B8825B",
"-. c #BE855F",
";. c #BE865F",
":. c #BF865F",
">. c #AA8462",
",. c #A98664",
"<. c #B78C67",
"1. c #B48F6B",
"2. c #BA896A",
"3. c #BA8F6B",
"4. c #B2906C",
"5. c #B3906E",
"6. c #BA956F",
"7. c #B4897D",
"8. c #BD9770",
"9. c #CE8540",
"0. c #C08760",
"q. c #C38760",
"w. c #C08860",
"e. c #C08861",
"r. c #C28A62",
"t. c #C48B63",
"y. c #CA8D63",
"u. c #C98E65",
"i. c #CD9066",
"p. c #C99068",
"a. c #CB9268",
"s. c #CA936A",
"d. c #CF9C6E",
"f. c #D09F6E",
"g. c #DB9B6E",
"h. c #C29971",
"j. c #C09973",
"k. c #C79F77",
"l. c #D19E73",
"z. c #CAA178",
"x. c #CBA279",
"c. c #CEA47B",
"v. c #DAA377",
"b. c #D0A57B",
"n. c #D3A77B",
"m. c #D6A67B",
"M. c #D0A67C",
"N. c #D7A97E",
"B. c #DDA87B",
"V. c #DDA97D",
"C. c #DEAB7E",
"Z. c #EFB477",
"A. c #9C8E83",
"S. c #979797",
"D. c #9A9795",
"F. c #A7958F",
"G. c #A09696",
"H. c #A9AAAC",
"J. c #A9B5BD",
"K. c #B9B6B5",
"L. c #D6AB80",
"P. c #D5AB82",
"I. c #D7AC81",
"U. c #D9AD81",
"Y. c #DBAD81",
"T. c #D8AD82",
"R. c #DAAE82",
"E. c #DDAF83",
"W. c #D5AC8C",
"Q. c #DDB083",
"!. c #DDB084",
"~. c #DEB184",
"^. c #DFB285",
"/. c #E3B080",
"(. c #E0B184",
"). c #E0B185",
"_. c #E3B385",
"`. c #E3B587",
"'. c #E7B485",
"]. c #E4B487",
"[. c #E8B687",
"{. c #ECB983",
"}. c #E5B788",
"|. c #E7B98A",
" X c #E7BA8D",
".X c #E8B98A",
"XX c #EDBB88",
"oX c #ECBA8A",
"OX c #ECBB8B",
"+X c #EBBB8C",
"@X c #EDBD8D",
"#X c #EEBC8C",
"$X c #F1BE8D",
"%X c #F1BF8E",
"&X c #F7BF8D",
"*X c #F4BF8E",
"=X c #EFBF90",
"-X c #C7B1A7",
";X c #CABEB9",
":X c #FCC18F",
">X c #F1C090",
",X c #F2C190",
"<X c #F3C291",
"1X c #F4C392",
"2X c #F7C491",
"3X c #F4C593",
"4X c #F6C593",
"5X c #F7C593",
"6X c #FBC693",
"7X c #F9C795",
"8X c #FAC795",
"9X c #F9C896",
"0X c #FBC996",
"qX c #FDCB98",
"wX c #FDCB99",
"eX c #FFCC98",
"rX c #FFCC99",
"tX c #FFCE9A",
"yX c #FFD19D",
"uX c #CDC1BB",
"iX c #DEC1B0",
"pX c gray79",
"aX c #CBCDCD",
"sX c gray80",
"dX c #CDCDCD",
"fX c gray81",
"gX c #D0D0D0",
"hX c #D7D7D7",
"jX c #F2CCCC",
"kX c #E5D7CC",
"lX c #CDDAE0",
"zX c #E8EBED",
"xX c #FCF1EA",
"cX c #EBF0F3",
"vX c #F1F6F6",
"bX c white",
/* pixels */
"                              2   r                             ",
"                            x I.) z.w                           ",
"                          & E.>X|.[ #.t                         ",
"                          , q.v T.k.h +.                        ",
"                          > -.! f 6 2 >                         ",
"                          , -.A P .                             ",
"                          = 0.>.} >./                           ",
"                          & r.7XtXtX7X{                         ",
"                          + t.XXj.~.c.}..                       ",
"                          * s.[.b c.^ T..                       ",
"                          . Y (.^ c.` I.. . .                   ",
"                        W m.Q.#X~.+X.Xf.G.vXjXD                 ",
"                      a -.*X9X<X0X}.3.2XW.F.7.c                 ",
"                    E q.V.,X>X>X5X(.$.=XXX1.O.S                 ",
"                    s I s.>X3X>X=X2XE.] Z uXK.                  ",
"                      T V.#X$X7X7X7XwX'...i                     ",
"                        O +.q.N.T.~..X8..                       ",
"                          . I R X . .                           ",
"                          j u.u.q                               ",
"                        . l.p.V.u                               ",
"                       .n P.^ ( +                               ",
"                . . ~ wXF c.P.1.z.8.                            ",
"                D.zXiXZ.kXA.Z.yXtXv.%                           ",
"                K.bX-X9.cXcX,.b G t                             ",
"                  B 8 X.;XlXJ.5 .                               ",
"                  ; o . 2.m V z                                 ",
"                  5.x.e =.p : ~.g                               ",
"                1 h.OX}.'   7 (.q                               ",
"                4.2XP 4     d r.' m                             ",
"                | d.9     . u.g.*XZ..                           ",
"                  N H.    l Q %.o.*.S.                          ",
"                    fXpXgXC . # . M hXsXsXfX                    "
};
