/* XPM */
static char *_73bb0c688f14c1ea9a956ef78e8e918ruv3HHRQr75o0xvS[] = {
/* columns rows colors chars-per-pixel */
"32 32 241 2 ",
"   c None",
".  c black",
"X  c #000007",
"o  c #00000E",
"O  c #00000F",
"+  c #000013",
"@  c #040C13",
"#  c #0D0912",
"$  c #131317",
"%  c #151718",
"&  c #240000",
"*  c #3C0500",
"=  c #31241F",
"-  c #2B2825",
";  c #740C00",
":  c #5F3400",
">  c #4D3124",
",  c #4B382C",
"<  c #4F3D2F",
"1  c #523123",
"2  c #503329",
"3  c #513628",
"4  c #533728",
"5  c #53392A",
"6  c #553C2D",
"7  c #5C3929",
"8  c #493932",
"9  c #483E31",
"0  c #663A39",
"q  c #5F472D",
"w  c #524133",
"e  c #514237",
"r  c #5E4130",
"t  c #5F4431",
"y  c #584535",
"u  c #584636",
"i  c #5E4634",
"p  c #664224",
"a  c #604431",
"s  c #634735",
"d  c #624937",
"f  c #614A37",
"g  c #6B4B36",
"h  c #6C4934",
"j  c #624D3A",
"k  c #684D3A",
"l  c #694E3A",
"z  c #6E4C39",
"x  c #69523E",
"c  c #7E5137",
"v  c #73513B",
"b  c #7D533A",
"n  c #7A563E",
"m  c #7F583E",
"M  c #5B5756",
"N  c #6E5843",
"B  c #775540",
"V  c #705943",
"C  c #725944",
"Z  c #725A44",
"A  c #765D46",
"S  c #765E47",
"D  c #615C5B",
"F  c #7C6049",
"G  c #686160",
"H  c #6B6462",
"J  c #6C6766",
"K  c #955A1E",
"L  c #8A4F2D",
"P  c #835A40",
"I  c #885F44",
"U  c #896044",
"Y  c #83694F",
"T  c #85694E",
"R  c #926141",
"E  c #906548",
"W  c #93674A",
"Q  c #956549",
"!  c #96664B",
"~  c #94694C",
"^  c #9A6A4A",
"/  c #9B6B4B",
"(  c #986B4C",
")  c #8E6950",
"_  c #976F53",
"`  c #927356",
"'  c #9D7757",
"]  c #947558",
"[  c #9C7B5C",
"{  c #9C7C5C",
"}  c #A9794D",
"|  c #B0784F",
" . c #BE7F4E",
".. c #A16F51",
"X. c #A17150",
"o. c #A57554",
"O. c #A87655",
"+. c #AB7856",
"@. c #AE7857",
"#. c #A37B5C",
"$. c #B57E58",
"%. c #B47F5B",
"&. c #B87E58",
"*. c #B98359",
"=. c #BB845E",
"-. c #BC855F",
";. c #BD855F",
":. c #A18160",
">. c #A48361",
",. c #A58563",
"<. c #AF8462",
"1. c #AD8464",
"2. c #AA8966",
"3. c #AD8A67",
"4. c #AF8C68",
"5. c #BF8760",
"6. c #B48960",
"7. c #B78C61",
"8. c #B38864",
"9. c #BA8C63",
"0. c #B98964",
"q. c #B58F6B",
"w. c #BC9670",
"e. c #BD9871",
"r. c #C48A5C",
"t. c #C08862",
"y. c #C78B62",
"u. c #C28B66",
"i. c #C48A64",
"p. c #C38E66",
"a. c #C58D65",
"s. c #C28F69",
"d. c #C0946F",
"f. c #C1956F",
"g. c #C89269",
"h. c #C9936A",
"j. c #CA936D",
"k. c #CC986F",
"l. c #D99967",
"z. c #D39768",
"x. c #D5966A",
"c. c #D2996E",
"v. c #DD9D6F",
"b. c #DF9D6F",
"n. c #C09972",
"m. c #C79C73",
"M. c #C39B74",
"N. c #C39C75",
"B. c #C59D75",
"V. c #C79F77",
"C. c #C99C75",
"Z. c #D39E73",
"A. c #D59C70",
"S. c #D59E73",
"D. c #CBA279",
"F. c #CDA278",
"G. c #CCA379",
"H. c #CEA57A",
"J. c #CFA57C",
"K. c #D0A77D",
"L. c #DDA679",
"P. c #D6AB7F",
"I. c #DBA978",
"U. c #DEA87A",
"Y. c #DFAD7A",
"T. c #E0A678",
"R. c #E5AD7E",
"E. c #E4AC7F",
"W. c #6B7A81",
"Q. c #747D83",
"!. c #7B8287",
"~. c #878A90",
"^. c #9B9696",
"/. c #B39A8F",
"(. c #BB9192",
"). c #D5AB81",
"_. c #D8AD81",
"`. c #D8AE82",
"'. c #DBAF83",
"]. c #DDB083",
"[. c #DEB185",
"{. c #E7B182",
"}. c #E0B285",
"|. c #E4B487",
" X c #E9B687",
".X c #EEB686",
"XX c #E3B588",
"oX c #E5B688",
"OX c #E8B98A",
"+X c #E9B98A",
"@X c #E9BA8B",
"#X c #E9BA8C",
"$X c #EBBC8D",
"%X c #EBBD8F",
"&X c #EDBC8D",
"*X c #EDBE8E",
"=X c #F0BE8B",
"-X c #E1BD9D",
";X c #DAA7A4",
":X c #C7B5AD",
">X c #F0C08F",
",X c #F0C090",
"<X c #F1C090",
"1X c #F2C190",
"2X c #F2C291",
"3X c #F3C291",
"4X c #F3C391",
"5X c #F3C392",
"6X c #F4C392",
"7X c #F5C492",
"8X c #F8C794",
"9X c #F9C795",
"0X c #FAC896",
"qX c #FBC896",
"wX c #FAC996",
"eX c #FFC996",
"rX c #FECC98",
"tX c #FFCE9A",
"yX c #FFD49F",
"uX c #FBD3AF",
"iX c #F1D2B8",
"pX c #F9D7BB",
"aX c #C3C4C4",
"sX c #C6C5C5",
"dX c #C9CACA",
"fX c #CACBCB",
"gX c #CBCBCB",
"hX c #CBCCCC",
"jX c gray80",
"kX c gray81",
"lX c #DFD0C8",
"zX c #D5D8DB",
"xX c #DEDADA",
"cX c #E0CCC3",
"vX c #DEE4E8",
"bX c #E0E1E2",
"nX c #E3E4E4",
"mX c #EDF0F2",
"MX c gray99",
"NX c #FFFDFD",
"BX c white",
/* pixels */
"                              j :.T 2.                          ",
"                            w '.9Xe.8.P                         ",
"                            k k.n.K.c ;..                       ",
"                            r &.z N 6 g                         ",
"                            a ;.Q ^ .                           ",
"                            a ;.d k <                           ",
"                            3 c.*X$X6XV.                        ",
"                            > S.4XOX*X=Xq.                      ",
"                            4 T.G.:.e.4.D.                      ",
"                            . h.G.] e.,.N..                     ",
"                            [ C.].N.`.).=.~.aX(.                ",
"                        m X.6X9X4X8XXX[.I.:XxX;X0               ",
"                      W x..X4X4X>XwXw.<.uXT.; K i               ",
"                    $ I ..Z.L.4X4X4XOXf.1.9.lX/.                ",
"                      . +.{. X4X4X4X8XOXs.L ^.                  ",
"                      = v ` S.L.4X7X7XrXC.2                     ",
"                            7 ! _ Z S S 9                       ",
"                            5 t.@..   % ,                       ",
"                    u C C F h.l.r.-   3.R.b                     ",
"                  u ].OX`.}.=XuX-X.   ~ b.U                     ",
"                . F.rXY 1 } iXBXbX* B O.b.W                     ",
"                . P.qXN $.pXMXBXnX: t.%.=.n                     ",
"                  ,.0.R j.BXBXBXzX. + X .                       ",
"                    . ( o.cXmXvXQ.                              ",
"                        .  .!.W.                                ",
"                        o ) 7.&                                 ",
"                      . / f %Xe                                 ",
"                    . N.' F.#.# @                               ",
"                    B.R.s p.a.oXJ.o                             ",
"                    q @.y.h p z.*..                             ",
"                      H u.=.D G H                               ",
"                    kXhXM 8 sXhXhXjXjXjXjXgXgX                  "
};
