/* XPM */
static char *_d90837251df4f418b0546c1245ef465XbPU5FWS1f4tSzcJ[] = {
/* columns rows colors chars-per-pixel */
"16 16 44 1 ",
"  c None",
". c #DF700E",
"X c #E56E0F",
"o c #E46F13",
"O c #E67011",
"+ c #E47212",
"@ c #E77212",
"# c #E17612",
"$ c #E97313",
"% c #E97315",
"& c #EA7414",
"* c #EE7717",
"= c #E6721C",
"- c #F97F1D",
"; c #1E8F08",
": c #1C9308",
"> c #1F9308",
", c #1F9209",
"< c #209509",
"1 c #299C09",
"2 c #00A509",
"3 c #00AE09",
"4 c #2EA909",
"5 c #23B20A",
"6 c #24B20A",
"7 c #26B30A",
"8 c #30B90A",
"9 c #5E8906",
"0 c #629007",
"q c #FB811D",
"w c #FE811C",
"e c #FF841D",
"r c #FF8723",
"t c #FF8624",
"y c #FF8823",
"u c #FF8B22",
"i c #FF8C22",
"p c #FF8D22",
"a c #FF8A27",
"s c #FF8A2A",
"d c #FF8A2B",
"f c #FF8B2B",
"g c #FF8B2C",
"h c #FF8C2C",
/* pixels */
"                ",
"  <,,           ",
" ,754           ",
" ;7839 .        ",
"  120#uuX       ",
"    +tgfe       ",
"    *ffga+      ",
"    =ufffq      ",
"     oqafr      ",
"       &-i%     ",
"         $+     ",
"                ",
"                ",
"                ",
"                ",
"                "
};
