/* XPM */
static char *bb2d5ab5fb1e47ea850770c02e740ce2V1wxIpwiZNzMpKvO[] = {
/* columns rows colors chars-per-pixel */
"50 50 16 1 ",
"  c None",
". c #E26C0C",
"X c #E36D0D",
"o c #E97313",
"O c #F07B1B",
"+ c #F47F1F",
"@ c #1E8F08",
"# c #1F9308",
"$ c #209808",
"% c #219D08",
"& c #22A109",
"* c #24AC09",
"= c #26B30A",
"- c #F98424",
"; c #FF8A2B",
": c white",
/* pixels */
"                                                  ",
"                                                  ",
"                                                  ",
"                                                  ",
"     @@@@ @@@@                                    ",
"    @@&&@@@&&@@                                   ",
"    @&&&&$$$&&@@                                  ",
"    @@$&&&***&&@                                  ",
"     @$&***=**&@                                  ",
"     @&&*====*&@@                                 ",
"    @@$&*====*$&@                                 ",
"    @$#*=====*$&@  ......                         ",
"    @@$**==**&&@@...OOOO..                        ",
"    @@&&%***&&@@..OOO--Oo..                       ",
"     @@@&&&&&@@..OO-----OO..                      ",
"       @@@@@@@..OO--;;;--OO.                      ",
"             ..OO--;;;;;--O..                     ",
"             .oO--;;;;;;--OO.                     ",
"             .O--;;;;;;;;--O..                    ",
"            ..O--;;;;;;;;;-OO.                    ",
"            .Oo-;;;;;;;;;;--O..                   ",
"            ..o--;;;;;;;;;;-OO.                   ",
"             .OO--;;;;;;;;;--O..                  ",
"             ..OO--;;;;;;;;;-OO.                  ",
"             ...OO---;;;;;;;--O.                  ",
"               ..OOO--;;;;;;;-O.                  ",
"                ...OO---;;;;;+O..                 ",
"                  ..OOO-+--;;-OO.                 ",
"                   ...OO-----++O.                 ",
"                     ..OOOO++-+O..                ",
"                      ....OOOO-OO.                ",
"             :           ...OOOOo.                ",
"            :::            ...Oo..                ",
"             :               .....                ",
"                                                  ",
"                                                  ",
"                                                  ",
"                                                  ",
"                                                  ",
"                                                  ",
"                                                  ",
"                                                  ",
"                                                  ",
"                                                  ",
"                                                  ",
"                                                  ",
"                                                  ",
"                                                  ",
"                                                  ",
"                                                  "
};
