/* XPM */
static char *b6dc204b7ba04c61aead743c2edd2987jhiaZmxI1kSmkNyD[] = {
/* columns rows colors chars-per-pixel */
"32 51 147 2 ",
"   c #00003E",
".  c #000040",
"X  c #001741",
"o  c #002141",
"O  c #0C2541",
"+  c #122641",
"@  c #1C2643",
"#  c #232744",
"$  c #282745",
"%  c #252940",
"&  c #2C2A43",
"*  c #3D2743",
"=  c #342C44",
"-  c #3B2E45",
";  c #3D274B",
":  c #3D2C4B",
">  c #3F3046",
",  c #3F3049",
"<  c #422543",
"1  c #422E44",
"2  c #4A2A44",
"3  c #462D4B",
"4  c #413047",
"5  c #4A3145",
"6  c #463B45",
"7  c #4A3C45",
"8  c #453249",
"9  c #4C344B",
"0  c #533344",
"q  c #5A3545",
"w  c #5B3E46",
"e  c #52364C",
"r  c #59364A",
"t  c #57384E",
"y  c #5C384A",
"u  c #523051",
"i  c #5C3751",
"p  c #5B3A52",
"a  c #663145",
"s  c #693546",
"d  c #623C46",
"f  c #6C3B47",
"g  c #63394A",
"h  c #6B3C48",
"j  c #743347",
"k  c #723C47",
"l  c #743E48",
"z  c #7D3E4A",
"x  c #653E55",
"c  c #6A3F56",
"v  c #5D4346",
"b  c #5E434A",
"n  c #614045",
"m  c #6C4647",
"M  c #65464E",
"N  c #754248",
"B  c #784048",
"V  c #744F4A",
"C  c #7D4948",
"Z  c #7A504A",
"A  c #6C4056",
"S  c #6F4258",
"D  c #734255",
"F  c #7B4453",
"G  c #774C57",
"H  c #7B4C56",
"J  c #8F3D4A",
"K  c #86444A",
"L  c #8A454D",
"P  c #8E4B4B",
"I  c #93444B",
"U  c #954A4C",
"Y  c #9A4C4C",
"T  c #86524B",
"R  c #8D554B",
"E  c #865C4C",
"W  c #94544A",
"Q  c #9D524D",
"!  c #9A594C",
"~  c #834652",
"^  c #8A4751",
"/  c #834D55",
"(  c #8A4A52",
")  c #885155",
"_  c #885857",
"`  c #995451",
"'  c #A2554D",
"]  c #A25D4D",
"[  c #A95D4E",
"{  c #A55E50",
"}  c #A85F50",
"|  c #88604D",
" . c #92644F",
".. c #9C6650",
"X. c #976B50",
"o. c #9C6E51",
"O. c #9A665A",
"+. c #9D685B",
"@. c #A3614D",
"#. c #AE634F",
"$. c #AF654F",
"%. c #B2654F",
"&. c #B1664F",
"*. c #B2664F",
"=. c #B4684F",
"-. c #A96050",
";. c #AE6651",
":. c #B16550",
">. c #B06651",
",. c #B16851",
"<. c #B36950",
"1. c #B46A50",
"2. c #B66B50",
"3. c #B86A50",
"4. c #BA6D51",
"5. c #A67553",
"6. c #AC7955",
"7. c #B37654",
"8. c #BA7253",
"9. c #BD7453",
"0. c #BD7553",
"q. c #BA7655",
"w. c #C17654",
"e. c #C17955",
"r. c #C57B56",
"t. c #C27D57",
"y. c #C47C56",
"u. c #C67C56",
"i. c #C37E58",
"p. c #B98156",
"a. c #C68057",
"s. c #C78157",
"d. c #C88258",
"f. c #CE8759",
"g. c #D0895A",
"h. c #D18C5B",
"j. c #D5935D",
"k. c #D9955E",
"l. c #DC995F",
"z. c #DE9A60",
"x. c #DF9B60",
"c. c #E09B60",
"v. c #E09C61",
"b. c #E19D61",
"n. c #E39F61",
"m. c #E5A162",
"M. c #E9A263",
/* pixels */
"c c A c c c c x A A x A x A A A A M c x A A M c c c c c c c c c ",
"x A A A A A A A A A A A A A A A A A c c A A c c c c A A A A A c ",
"A e 9 9 9 5 9 9 9 9 9 9 5 9 9 9 9 9 9 9 9 9 9 9 9 9 9 9 9 5 e c ",
"A - % % % % % % & % % % % % % % % % % % % % % & % % % % % % - A ",
"A 4 & > 8 8 8 8 - - 8 4 4 8 = 4 5 8 4 8 8 8 > = 8 4 4 8 > % 8 A ",
"A 4 % e D A A S 4 e S D D S 4 e A A D A A D e 4 S D D A e % 4 A ",
"c > % 9 A A A A 1 9 F U U A - e A D U A A A 9 , D U Y F 9 % 4 A ",
"c 4 % 9 A A P U q 8 ) <.<.Y 5 l U Q -.A x A e , D Y Y U f + 4 c ",
"c 4 % e c c Y Y q : ) 4.<.Q 5 N Y ' >.c x A 9 : A U I Y h + 4 A ",
"c 4 % 9 D ~ U Y q r ` 2.<.Y 5 l Y Q &.~ F ^ g 1 ^ ] [ ' h + 4 A ",
"A 4 % 9 F Y I Y 2 s ' 2.;.Y * j I Q &.U U Y s 0 [ 2.<.' h + 4 A ",
"c 4 % 9 F Y { @.Z T ;.0.8.[ V R } @.8.{ { [ T E w.8.8.[ f O 4 A ",
"c 4 % 9 F ' l.b.b.x.x.x.x.x.b.b.b.b.c.c.x.x.x.x.c.b.b.u.C X 4 A ",
"c 4 % 9 D ' b.b.b.x.x.c.x.x.x.c.b.l.x.x.x.x.x.x.l.l.b.r.C o > A ",
"c 4 % 8 / 3.e.e.0.h.n.b.b.b.b.b.b.b.x.b.b.b.b.b.m.b.m.a.C o 4 A ",
"c 4 % e D T Q ' } 0.d.a.i.i.a.a.a.a.a.u.d.u.a.t.q.q.q.;.N o , A ",
"c 4 % e i % U I &.=.&.>.&.&.&.&.;.&.&.&.&.&.=.[ J I I Y f + 1 c ",
"c 4 % e x 9 L K ! @.] @.] ] ] ..] @.@.] ] @.@.! K K K L d @ 1 c ",
"c 4 % e c x & & # @ % # % # @ # # % # # % # @ % & & & & = & 4 c ",
"c 4 % e c c x c 4 9 c c x A , e A A x x x A e 4 A c c c 9 % 4 c ",
"c 4 % e A S ( U e f L A A P 0 t A D U P D c e 4 A A c c e % 4 c ",
"c 8 % e A A U Y q k ( p x Y 0 9 x D Y Y D c e 4 A x x A e % 4 c ",
"c 1 % 9 S z I I < a I F ~ U 0 g ~ ~ U U c c 9 8 A F ~ D e % 4 c ",
"c 1 % 9 / 2.<.=. ...;.' ' Y 5 B Y Y ' Y F F r : D Y Y F 9 % 4 c ",
"c 4 % ; O.b.x.j.j.b.j.&.>.' 5 l Y Q <.Q Y Q f , F Q Q ~ 9 % 4 A ",
"c 4 % ; O.x.= & . 6.k.&.=.2.w l Y Q <.2.Q Y f 0 Q =.1.' h + , A ",
"c 4 % ; O.l.= #   6.k.&.2.3.w l U Q 2.<.Q Y f 0 Y <.1.' h + 4 A ",
"c 4 % 3 O.j.> =   5.k.#.>.2.w l Y Q <.<.Y Y f d ;.=.1.' h + > A ",
"A 4 # : +.l.    | j.k.;.<.2.w k Y Q <.1.` Q k m 4.2.1.{ f O 4 A ",
"A 4 % 8 _ p.| | j.j.7.>.<.<.w l Y Q 1.1.P ^ g g ;.2.1.` r @ > A ",
"A > % t 9 > M.M.M.X.2 4.2.<.v l Y Q 1.1.D x 9 q Y 2.1./ 8 % 4 c ",
"A > % e p v x.n.x.o.g 4.2.3.v l U Q <.1.F x 9 q ` 2.=.~ 9 % 4 c ",
"A 4 % 9 F P 7 7 6 N ' 2.<.1.n e S F Q 2.H c e , H 2.2./ 9 % 4 c ",
"x > % 9 F Y K K 4 h ' Q Q ' q u c c l Q D c e 4 D Q ' F 9 % 4 c ",
"A 4 % 9 F Y Y Y q t L Y U ~ 4 e c c c I D c e 4 D U Y F 9 # 4 c ",
"A 4 % 9 F Y U Y q 8 F Y U A 4 e c c c Y D c e : D Y Y F 9 % 4 c ",
"S - % e D U I U 0 3 D L L A & 9 x x x K c c 3 = c L ( D 9 % 4 c ",
"c 4 % u A A Q [ m M H G G H b A G G G G H H c b G G H D r # 4 c ",
"c 4 % 9 x H l.v.x.x.x.k.x.x.l.l.z.z.z.z.z.z.x.x.x.x.x.r.C o 1 c ",
"c 4 % 9 H ;.q.4.j.x.x.x.x.x.x.x.x.x.x.x.x.x.x.x.x.x.x.r.C o 1 c ",
"c 4 % 9 ) 3.&.&.h.m.b.b.b.b.b.b.b.b.b.b.b.b.x.b.b.b.m.i.C o 4 c ",
"c 4 % 9 F R [ [ u.g.f.f.f.f.f.f.f.f.f.f.f.f.f.f.f.r.i.<.N o 4 c ",
"c 4 % e p - N z P ! W W W W ! W W W W W W W W W W j j K y % 4 c ",
"c 4 % e A x & & + + # * = $ O + # # % = & # # @ + - 4 = & & 4 c ",
"c 1 % e A A A A 8 9 F Y I D - p A A A U A A A t 2 U Y F 9 % , A ",
"c 8 % e A A x A 8 9 F Y U D - e A A A U D A A p 8 Y Y F 9 % 4 A ",
"c 4 % e D A A A 8 9 ~ Y Y D - t D A A Y F A A y 5 Y Y F 9 % 1 c ",
"S - % - 9 9 9 9 = 4 t f f 9 = , 9 5 e f e 8 e 4 = f h r - % : c ",
"c e 9 9 8 8 8 5 5 8 8 , 8 8 9 9 8 8 8 4 8 8 9 8 9 > , 8 9 9 e c ",
"A c A A A c A A A A A A A A c c c c c S S A A A A A A A A A c c ",
"x A x A A A A x x A A x A A A M c c c c c c c c c c c x x A M c "
};
