/* XPM */
static char *_c81b8fc3caf47a8da451b31b37b8a1fdmb1S4BEYjrVZwzE[] = {
/* columns rows colors chars-per-pixel */
"32 32 4 1 ",
"  c black",
". c #444627",
"X c #576A37",
"o c #8E9642",
/* pixels */
"                                ",
"....XXooooXXXX..XXooooXXooXXXX..",
"....XXooooXXXX..XXooooXXooXXXX..",
"XXXX..XXooooXX......ooXXoo..XX..",
"XXXX..XXooooXX......ooXXoo..XX..",
"ooXX....XXXX..XXoo..ooXXoo......",
"ooXX....XXXX..XXoo..ooXXoo......",
"........oooo..ooXXooXX....XXooXX",
"........oooo..ooXXooXX....XXooXX",
"..XXXX..XXooXXooXXoooo..XXooXX..",
"..XXXX..XXooXXooXXoooo..XXooXX..",
"XXooooXXXXXXXXXX..XXooXXooXX....",
"XXooooXXXXXXXXXX..XXooXXooXX....",
"XXooooXXXX..XX..XXXXooXXXX..XXXX",
"XXooooXXXX..XX..XXXXooXXXX..XXXX",
"....XXooooXX..XXooooXX..ooXXXXoo",
"....XXooooXX..XXooooXX..ooXXXXoo",
"..ooXXXXoooo..ooooXX..XXooooXXXX",
"..ooXXXXoooo..ooooXX..XXooooXXXX",
"..ooooXXXXooXXooXXXX..XXXXoo....",
"..ooooXXXXooXXooXXXX..XXXXoo....",
"..XXooXX..XXXXXX....ooXX....XXoo",
"..XXooXX..XXXXXX....ooXX....XXoo",
"XX..XXooXX....XXoo..XXooXXXXooXX",
"XX..XXooXX....XXoo..XXooXXXXooXX",
"ooooXXoooo..XXooXXXXXXoo..ooXX..",
"ooooXXoooo..XXooXXXXXXoo..ooXX..",
"XXooooXXooXXooooXX....XX..XX..XX",
"XXooooXXooXXooooXX....XX..XX..XX",
"..XXooXXooXXooXX..XXXX....XXoooo",
"..XXooXXooXXooXX..XXXX....XXoooo",
"..XX..XXXX..XXXX..ooXX..XXoooo.."
};
