/* XPM */
static char *_9d7c145bdaf454bc5f727c974207ebeh58F9KGbmCMVhD7e[] = {
/* columns rows colors chars-per-pixel */
"32 40 179 2 ",
"   c None",
".  c #000000",
"X  c #000A00",
"o  c #001400",
"O  c #1F1802",
"+  c #03290E",
"@  c #012107",
"#  c #003200",
"$  c #042915",
"%  c #182D19",
"&  c #01341A",
"*  c #0E351B",
"=  c #013C1D",
"-  c #013217",
";  c #2D210B",
":  c #272F1B",
">  c #2E261E",
",  c #21341F",
"<  c #003C22",
"1  c #3E2E22",
"2  c #2A3722",
"3  c #423224",
"4  c #4D3525",
"5  c #493729",
"6  c #473828",
"7  c #4C3A2B",
"8  c #513E2D",
"9  c #453E32",
"0  c #01431E",
"q  c #004225",
"w  c #044B26",
"e  c #004728",
"r  c #004C2B",
"t  c #094826",
"y  c #005324",
"u  c #00532D",
"i  c #015B2D",
"p  c #09552D",
"a  c #13592D",
"s  c #005631",
"d  c #005B32",
"f  c #00612E",
"g  c #006435",
"h  c #0B6136",
"j  c #016B36",
"k  c #006738",
"l  c #016C39",
"z  c #106237",
"x  c #136834",
"c  c #017337",
"v  c #01733A",
"b  c #0A773A",
"n  c #007B3C",
"m  c #087A3C",
"M  c #1D7235",
"N  c #1A763B",
"B  c #2C642E",
"V  c #296832",
"C  c #306F32",
"Z  c #267235",
"A  c #2A7738",
"S  c #2D7938",
"D  c #257B39",
"F  c #5F452D",
"G  c #544232",
"H  c #5C4735",
"J  c #5E4936",
"K  c #604835",
"L  c #6A523A",
"P  c #007640",
"I  c #007D42",
"U  c #495949",
"Y  c #5C5040",
"T  c #55584C",
"R  c #645543",
"E  c #775F46",
"W  c #7E6748",
"Q  c #656B5D",
"!  c #7B6A52",
"~  c #8C714C",
"^  c #806D51",
"/  c #84795F",
"(  c #01833D",
")  c #07883E",
"_  c #238139",
"`  c #2A833C",
"'  c #34843A",
"]  c #358A3C",
"[  c #3F8E3D",
"{  c #3E8439",
"}  c #448A39",
"|  c #42953F",
" . c #4D963B",
".. c #4C9B3C",
"X. c #50953B",
"o. c #569C38",
"O. c #4EA03D",
"+. c #5BAD3F",
"@. c #67AB3A",
"#. c #6EB43C",
"$. c #018443",
"%. c #0B8242",
"&. c #028A45",
"*. c #0B8942",
"=. c #008749",
"-. c #008D4A",
";. c #1A8542",
":. c #1D8B45",
">. c #128F4A",
",. c #138943",
"<. c #029046",
"1. c #00934C",
"2. c #0D934B",
"3. c #00984F",
"4. c #13934A",
"5. c #1D954A",
"6. c #1B9A4D",
"7. c #1A974B",
"8. c #009651",
"9. c #009C52",
"0. c #2A8740",
"q. c #228942",
"w. c #249549",
"e. c #219548",
"r. c #369D44",
"t. c #3B9A45",
"y. c #349D4A",
"u. c #3C9D4A",
"i. c #319245",
"p. c #00A355",
"a. c #00A258",
"s. c #14A052",
"d. c #29A24F",
"f. c #3FA144",
"g. c #36A54C",
"h. c #2BA552",
"j. c #27A551",
"k. c #2EB257",
"l. c #459D44",
"z. c #519D40",
"x. c #4CA244",
"c. c #43A649",
"v. c #4BA449",
"b. c #44AB4B",
"n. c #4BAD49",
"m. c #48AB47",
"M. c #53A545",
"N. c #54AC42",
"B. c #5AA943",
"V. c #4EB44C",
"C. c #5EB344",
"Z. c #5BB947",
"A. c #53B64B",
"S. c #56B84A",
"D. c #52B94E",
"F. c #57B849",
"G. c #63BD45",
"H. c #6CBE44",
"J. c #72BE42",
"K. c #768272",
"L. c #6BC045",
"P. c #72C743",
"I. c #7DCA42",
"U. c #76CB45",
"Y. c #83826D",
"T. c #818877",
"R. c #8F8C74",
"E. c #80CC42",
"W. c #8B9482",
"Q. c #8D9B88",
"!. c #889684",
"~. c #909D8A",
"^. c #93A18F",
"/. c #95A491",
"(. c #98A794",
"). c #9AAA96",
"_. c #9EAE9A",
"`. c #A1B29D",
"'. c #A6B6A1",
/* pixels */
"                            j.-.-.9.                            ",
"                      2.k.b.g.S.V.8.m.k.2.                      ",
"                    p.r.P.I.b.S.A.b.I.P.r.9.                    ",
"              1.-.8.n.n.V.G.S.6.6.H.L.A.m.V.9.-.8.              ",
"              b.Z.4.f.b.9.g.S.H.Z.E.m.9.b.c.4.Z.b.              ",
"            n ` t.9.l.I.D.6.x.H.D.v.5.D.I.| 9.u.` n             ",
"            &.n g I ] @..._ I 8.8.n D O.@.] $.k n &.            ",
"      *.9.8.1.&.i M ,.P I $.p.%.m 1.$.n I $.j p &.1.-.1.(       ",
"      k ' M.q.1.I A.n.4.7.A.7.1.-.5.M.>.e.s.p.I &.1.a.$.g       ",
"      c S ..*.&.v Z | J.J.N.Z l P A  .J.U.l.k b $.>.4.n c       ",
"      $.s #.G.n.-.=.I o.o.k c } D v g o.X.q.&.&.9.h.X.i $.      ",
"    b.$.b S B.f.a.v.i.I 1.8.>.M.:.-.9.1.v 1.a.a.1.8.N b $.9.    ",
"    &.-.1.$.n v ,.} Z %.9.h.v.-.2.c.d.9.,.l $.$.b v ( 1.&.&.    ",
"    8.a.w.;.1.n c s g v d ' G.l.v.C.' d n g p v n 1.&.1.p.3.    ",
"  b r ' B.0.9.e.>.I q.l.k n x A A x n k l.:.I >.7.p.&.a.$.r g   ",
"n v g a V g I B.v.y.n.x.q.-.$.n v $.-.:.z.v.y.v.B.v u k s k i e ",
"  8.$.d j g r B ..L.N.n x.M.u.8.3.u.h.3.n ..G. .B q d c w I 1.  ",
"r k g n *.j g g a Z u u {  .[ 8.8.| i.$.p u Z a d k v &.n g k r ",
"u u u 1.p.( n ( k d j l s s r c l r r u c j d k *.n ( p.1.u u u ",
"  q e i v 1.x.' g *.1.1.g m k c c h h d 1.1.) g n 1.1.l u < q   ",
"  < k u r k C M l 1.3.1.g g n c c n d u 1.3.1.j c k g e y g q   ",
"  e u s g < l p.1.c c v ( n 1.( $.1.n n c v v &.p.l < g u u =   ",
"  q e g g u v -.$.v ( $.8.p.I v c I 1.8.$.( n $.-.l s d d q +   ",
"    r ( v l k r e d g u k I r u u e v k u g g e r k c d e =     ",
"      i c ( c u -.-.d l d g n k g n k u l d n n d n ( j +       ",
"      & e u q & l $.( ( i g ( -.-.( g i ( ( c i & - r 0 @       ",
"          d u q = - g u q & = d i = - q u f = < e r g           ",
"          d g g g < u e < e < d d < q < e u < g g d d           ",
"              u = * z z p g < u u < g h z z * = u               ",
"                $ o . # y t & + + & t y # . o %                 ",
"                      Q U X e & & < X U K.Q.                    ",
"                /._.'./.T ; , : : 2 O Q /._.(./.                ",
"              /.)./.~.T 4 G 3 5 5 5 3 7 Q.(./.`./.              ",
"              )./././.R.L 5 8 J 5 J 3 8 T././././.'.            ",
"            /.)././.~.! R 9 E L > R H 9 Y Q././.)./.            ",
"            /./././././././ ~ 4 F L J W.(./././._./.            ",
"              '././././.^.~ W Q Y.^ !.(././././._./.            ",
"              /./.(./././.W./.`./././././././.'./.              ",
"                  /.)./.).`._./.)._._.`./.)._./.                ",
"                    /././././.)././././.                        "
};
