/* XPM */
static char *_c8ef6a36b734f09d0d4acdf488fd2b6DcGYa6hwJBnL9IKL[] = {
/* columns rows colors chars-per-pixel */
"32 32 119 2 ",
"   c #291719",
".  c #261B1B",
"X  c #2C1D1C",
"o  c #2D231E",
"O  c #2F2122",
"+  c #322421",
"@  c #362A25",
"#  c #392C27",
"$  c #3B2D29",
"%  c #3D3127",
"&  c #3E322A",
"*  c #422D2B",
"=  c #403726",
"-  c #4B3527",
";  c #43342C",
":  c #49362D",
">  c #453A2D",
",  c #493A2E",
"<  c #4A3730",
"1  c #4C3C31",
"2  c #513E33",
"3  c #4C432E",
"4  c #50462F",
"5  c #4E4232",
"6  c #524434",
"7  c #544B36",
"8  c #5A4D37",
"9  c #54453A",
"0  c #58463C",
"q  c #564D39",
"w  c #5A4D3A",
"e  c #5A5136",
"r  c #5F5837",
"t  c #56503C",
"y  c #5C533A",
"u  c #655B36",
"i  c #61563C",
"p  c #645C3C",
"a  c #685F3F",
"s  c #67613A",
"d  c #69613E",
"f  c #594D40",
"g  c #5F5344",
"h  c #585649",
"j  c #615444",
"k  c #655B44",
"l  c #695F40",
"z  c #665949",
"x  c #6A5D4A",
"c  c #676044",
"v  c #6B6241",
"b  c #6C6542",
"n  c #6D6444",
"m  c #6D6544",
"M  c #6E6546",
"N  c #6F6845",
"B  c #6C614D",
"V  c #6D624C",
"C  c #6D614E",
"Z  c #6F6A49",
"A  c #706747",
"S  c #716944",
"D  c #706749",
"F  c #71684B",
"G  c #746A4D",
"H  c #746D4C",
"J  c #676352",
"K  c #6F6453",
"L  c #6C6855",
"P  c #726453",
"I  c #756A52",
"U  c #776A57",
"Y  c #786F51",
"T  c #786D54",
"R  c #796E55",
"E  c #7A6C56",
"W  c #7A6F56",
"Q  c #776858",
"!  c #796959",
"~  c #786C59",
"^  c #7A6E5A",
"/  c #7B6F5A",
"(  c #7B7056",
")  c #7C7157",
"_  c #7E725B",
"`  c #7F725C",
"'  c #7E7D5E",
"]  c #797561",
"[  c #7A7A60",
"{  c #817759",
"}  c #82775A",
"|  c #80735D",
" . c #81745C",
".. c #81755F",
"X. c #83765F",
"o. c #817560",
"O. c #837662",
"+. c #847761",
"@. c #847662",
"#. c #827860",
"$. c #847861",
"%. c #857864",
"&. c #867964",
"*. c #877A66",
"=. c #887A66",
"-. c #897B66",
";. c #897B67",
":. c #897C67",
">. c #8A7E68",
",. c #85846B",
"<. c #888068",
"1. c #878B72",
"2. c #8D8B72",
"3. c #908C73",
"4. c #928F76",
"5. c #8D927A",
"6. c #929077",
"7. c #949379",
"8. c #989B7F",
/* pixels */
"O.O.O.y p b 6 e ( #.*.T p M 8 h 8...+.O.O.O.O.2 p M d n d d M 7 ",
"O.M n q p M > C *.O.%.T s b 7 9 :.` b n b M ..6 p v ~ +.F a d 7 ",
"M d d d y 1   ,.2...O.O.| +.C w O.v d d d d ] w p d  .*...| ..k ",
"d d v v d 7 ; c H v E %.+.:.! 7 M d d d d M #.y a d _ +.+.+.>.C ",
"d v b d v d q 7 7 p b ( ~ w y 7 y n v b d 6 0 % , p b _ +.+.&.x ",
"E d s d v d 7 5 6 7 p v g u y 7 7 e q e 6 6 5 . 8 d a _ +.+.=.K ",
"8.O.| j p } 9 7 b 7 q 5 g } i 5 7 7 7 7 > 7 t # d S i _ =.=.` i ",
"J k k q 7 9 & 5 7 > & X ; j 6 ; , 6 > @ . $ 1 : & 3 , j k j 0 , ",
"x K D 9 5 > @ > 5 # 5 y e 8 5 5 # $ + @ e e 6 ; = > 5 , k k e 6 ",
"*.*.*.w 5 t , 4 y 5 3 7 7 7 q 6 ; ; ; & e 7 5 ; 7 q 7 : Q ( s e ",
"+.*.*.w y p 5 1 5 6 > & > * 6 7 1 2 1 1 < $ @ * y p p 3 U  .} j ",
"I I P 9 y e & > 2 7 6 6 6 6 < 5 p p i q 6 < ; ; 8 p y x G Y P 9 ",
"G G 1 6 q @ O 6 q 7 7 6 6 5 # > i i p 7 7 6 1 ; 6 e q ` E F x , ",
"+.+.i 8 7 > # , y y y y 6 < > ; * < 7 6 7 7 , * A d p G %.+.=.x ",
"2.,.D v p & @ : 8 p p 6 1 t 7 : > 2 7 y y 5 5 1 O.X.' M G >.6.P ",
"1.1.w y k % o 5 5 < ; $ > 7 , , q 7 1 r p 1 7 q x 1.5.H 8 ' 5.L ",
"2 y g q 6 6 & 5 e t 7 5 < * @ > 5 5 < # $ : 5 7 & , - 6 y 6 - 3 ",
"=.} ..y p N 9 5 7 7 , @ # $ ; < $ # > 1 1 & # < a b M A b d M 7 ",
"] v p y p p > 5 7 7 7 5 ; 2 1 < < & q 7 q < $ 7 p d _ =.G d S q ",
"v v v v y > # 5 7 7 7 6 2 7 6 1 < 1 7 7 6 1 1 7 n d _ X.+.O.=.x ",
"l l v d d y 1 5 7 7 7 5 1 q 5 < q 6 1 q q 7 1 6 p d ( O.+.O.=.x ",
"v v l v v d e r v v e & > > # > 7 7 1 p p 1 $ < 2 p d _ *...=.K ",
"O.b d v b b 0 & < 2 6 7 7 7 5 : 1 < & > 1 1 $ # i v d _ X.%.%.x ",
"8.%.+.y i } 0 + # > q q 7 w 6 , 1 7 5 < q 6 7 o a b 7 _ =.X.( w ",
"f y y q 6 > @ 5 7 7 7 q 7 6 6 5 & q 7 & 7 7 q o o & : q y 0 6 , ",
"Q ! _ 9 1 5 & @ & & & 8 r 7 5 6 p p 6 : p 7 q o 3 6 7 : K C p 8 ",
"*.%.*.y 6 q > x V 3 , p p 7 3 6 d d 7 7 e p p # 3 7 7 > T Y s w ",
"*.O.*.9 y M : k H y 5 q 8 q 5 9 O.E r 7 p d b 1 r d v 5 Q %...j ",
"F V c 7 y 3 # 3 q a E C p w $ 5 H G Y p ( E v 1 6 y q G G D z 1 ",
"( E 5 5 7 # O k Q _ :._ ( ~ j = v _ O._ %.%.E 6 7 p y _  .I Q 0 ",
"O.O.j r 7 > O K =..._ O.+.*.P 6 | O.` O.O.*.*.< G v u M O.*.:.k ",
"2.2.v d k & . ' 6.2.6.O.` 7.] 6 ..2.2.2.#.E ] < ~ >.,.Z M >.7.L "
};
